<?xml version="1.0" encoding="UTF-8"?>
<!--
  P-001 Walking Hand in Hand — PLACEHOLDER

  This is a hand-coded placeholder, not a final illustration. Real
  illustrations should come from one of the paths in
  docs/ILLUSTRATION_PIPELINE.md (commissioned, AI-generated and
  vector-traced, or photo-traced).

  Conventions still followed:
    - stroke="currentColor" so the card template can theme
    - viewBox 600x400 (3:2)
    - no fills except joined-hands accent
-->
<svg xmlns="http://www.w3.org/2000/svg" viewBox="0 0 600 400">
  <g fill="none" stroke="currentColor" stroke-width="3.5"
     stroke-linecap="round" stroke-linejoin="round">

    <!-- ============= HER (left), three-quarter, walking forward ============= -->
    <!-- Hair (curved volume, suggests motion) -->
    <path d="M212 86 C 198 110, 195 145, 220 175"/>
    <path d="M218 80  C 240 70, 268 78, 270 105"/>
    <path d="M252 100 C 270 120, 268 150, 245 165"/>

    <!-- Face profile (light suggestion) -->
    <path d="M232 130 C 225 138, 226 148, 235 152"/>

    <!-- Head silhouette (oval, slightly tilted) -->
    <path d="M218 90 C 205 105, 205 145, 230 158
             C 258 165, 268 130, 260 100
             C 254 82, 232 78, 218 90 Z"/>

    <!-- Neck -->
    <path d="M242 158 Q 240 168, 235 178"/>

    <!-- Shoulder line (sloped, soft) -->
    <path d="M210 188 Q 235 175, 262 195"/>

    <!-- Torso (gentle curve) -->
    <path d="M218 195 Q 218 235, 222 270"/>
    <path d="M260 200 Q 264 240, 270 280"/>

    <!-- Dress / skirt (flared, draping curves) -->
    <path d="M218 270 C 200 320, 175 360, 160 388"/>
    <path d="M270 280 C 285 325, 295 360, 300 388"/>
    <!-- Hem (curved, suggests motion) -->
    <path d="M160 388 Q 230 378, 300 388"/>

    <!-- Far arm (hanging, slight arc) -->
    <path d="M212 195 Q 200 230, 198 260"/>

    <!-- Near arm (reaching across to him, with subtle elbow) -->
    <path d="M260 200 Q 285 215, 305 232"/>

    <!-- ============= HIM (right), forward stride ============= -->
    <!-- Hair (short, top suggestion) -->
    <path d="M362 78 Q 388 65, 415 80"/>
    <path d="M375 75 L 380 88"/>
    <path d="M395 73 L 393 88"/>

    <!-- Head (slightly larger, jawline more angular) -->
    <path d="M365 90 C 358 108, 360 144, 380 156
             C 408 162, 420 130, 416 100
             C 412 84, 388 76, 365 90 Z"/>

    <!-- Jaw shadow line -->
    <path d="M388 145 Q 395 152, 405 148"/>

    <!-- Neck -->
    <path d="M398 156 Q 397 168, 393 178"/>

    <!-- Collar / shirt opening -->
    <path d="M375 184 Q 393 175, 412 184"/>

    <!-- Shoulder line -->
    <path d="M362 198 Q 393 184, 425 200"/>

    <!-- Torso (slight V) -->
    <path d="M375 198 Q 380 240, 388 280"/>
    <path d="M415 200 Q 412 240, 408 280"/>

    <!-- Far arm (hanging at his side, elbow bend) -->
    <path d="M422 200 Q 432 232, 425 268"/>

    <!-- Near arm (reaching to her) -->
    <path d="M375 200 Q 360 215, 340 225 Q 322 232, 305 232"/>

    <!-- Legs (mid-stride: one forward, one back) -->
    <path d="M388 280 Q 380 320, 372 388"/>
    <path d="M408 280 Q 415 325, 412 388"/>
    <!-- Trouser hem hints -->
    <path d="M365 388 Q 372 384, 379 388"/>
    <path d="M405 388 Q 412 384, 419 388"/>

    <!-- ============= JOINED HANDS (anchor) ============= -->
    <circle cx="305" cy="232" r="7" fill="currentColor" stroke="none"/>
    <path d="M295 226 Q 305 222, 315 226"/>

    <!-- ============= GROUND + DIRECTION HINT (muted) ============= -->
    <g stroke-opacity="0.30" stroke-width="2.5">
      <line x1="40" y1="392" x2="560" y2="392"/>
    </g>
    <g stroke-opacity="0.35" stroke-width="2">
      <line x1="125" y1="372" x2="80" y2="372"/>
      <polyline points="93,366 80,372 93,378"/>
    </g>
  </g>
</svg>
